<?xml version="1.0" encoding="UTF-8" standalone="no"?>
<!-- Created with Inkscape (http://www.inkscape.org/) -->

<svg
   xmlns:dc="http://purl.org/dc/elements/1.1/"
   xmlns:cc="http://creativecommons.org/ns#"
   xmlns:rdf="http://www.w3.org/1999/02/22-rdf-syntax-ns#"
   xmlns:svg="http://www.w3.org/2000/svg"
   xmlns="http://www.w3.org/2000/svg"
   xmlns:sodipodi="http://sodipodi.sourceforge.net/DTD/sodipodi-0.dtd"
   xmlns:inkscape="http://www.inkscape.org/namespaces/inkscape"
   width="353.77402"
   height="933.85205"
   id="svg2"
   version="1.1"
   inkscape:version="0.48.4 r9939"
   sodipodi:docname="button1.svg">
  <defs
     id="defs4" />
  <sodipodi:namedview
     id="base"
     pagecolor="#000000"
     bordercolor="#666666"
     borderopacity="1.0"
     inkscape:pageopacity="0.40784314"
     inkscape:pageshadow="2"
     inkscape:zoom="0.49497475"
     inkscape:cx="340.89438"
     inkscape:cy="402.14825"
     inkscape:document-units="px"
     inkscape:current-layer="layer1"
     showgrid="false"
     inkscape:window-width="1366"
     inkscape:window-height="744"
     inkscape:window-x="0"
     inkscape:window-y="24"
     inkscape:window-maximized="1"
     inkscape:snap-bbox="true"
     inkscape:bbox-nodes="true"
     inkscape:snap-bbox-edge-midpoints="false"
     inkscape:snap-center="true"
     fit-margin-top="0"
     fit-margin-left="0"
     fit-margin-right="0"
     fit-margin-bottom="0" />
  <metadata
     id="metadata7">
    <rdf:RDF>
      <cc:Work
         rdf:about="">
        <dc:format>image/svg+xml</dc:format>
        <dc:type
           rdf:resource="http://purl.org/dc/dcmitype/StillImage" />
        <dc:title></dc:title>
      </cc:Work>
    </rdf:RDF>
  </metadata>
  <g
     inkscape:label="Layer 1"
     inkscape:groupmode="layer"
     id="layer1"
     transform="translate(-0.44104482,-0.25083234)">
    <path
       style="fill:#c8b7b7;fill-opacity:1"
       id="path3019"
       d="m 242.99388,63.511618 c -0.34682,-0.0439 -0.6955,-0.18832 -1.04047,-0.13166 -0.8611,0.14143 -1.64635,0.67583 -2.51806,0.71615 -0.38951,0.018 -0.68758,-0.36797 -1.03138,-0.55195 -0.55387,-0.065 -1.11148,-0.28631 -1.66161,-0.19491 -1.2525,0.2081 -2.39937,1.27735 -3.65329,1.07799 -0.54609,-0.0868 -4e-5,-1.1059 -6e-5,-1.65884 -3.12781,-0.85286 -5.77389,1.23281 -8.96028,0.56118 -0.70246,-0.14807 -1.26845,-0.79019 -1.9849,-0.83582 -7.16299,-0.4562 -1.157,1.5155 -5.918,-0.34657 -1.39682,0.23542 -2.79364,0.47084 -4.19047,0.70626 -0.61489,-0.32411 -1.15022,-1.00205 -1.84467,-0.97233 -1.69752,0.0726 -3.23992,1.21677 -4.93838,1.26255 -0.59311,0.016 -0.82094,-1.19034 -1.40599,-1.09158 -7.75597,1.30931 -4.79851,4.59504 -7.32406,0.90709 -1.63263,0.46115 -3.21331,1.18261 -4.89789,1.38344 -0.75655,0.0902 -1.48156,-0.3564 -2.22235,-0.5346 -1.02985,0.0501 -2.06881,0.005 -3.08955,0.15033 -1.3466,0.19209 -2.64296,0.66453 -3.98916,0.85942 -1.01198,0.14651 -2.04223,0.10773 -3.06335,0.1616 -1.25303,0.23089 -2.50607,0.46179 -3.7591,0.69269 -1.71976,0.16915 -1.02887,-2.25416 -2.08352,-2.61242 -0.998,-0.33903 -2.10312,0.15213 -3.15662,0.18526 -3.94883,0.12416 -6.98403,0.8613 -10.85166,1.67601 -2.55809,-0.35438 -5.24777,-0.93805 -7.84128,-0.92974 -0.94771,0.003 -6.34151,0.67702 -7.28004,0.57437 -0.7621,-0.0833 -1.41568,-0.58888 -2.12352,-0.88332 -2.56375,0.98828 -5.27226,0.12508 -7.87448,0.50837 -1.94088,0.28588 -3.76575,1.27144 -5.72543,1.36322 -0.89362,0.0419 -1.61886,-0.81925 -2.49926,-0.97803 -3.84897,-0.69415 -5.83243,0.24651 -9.83214,1.09479 -1.389,-0.007 -2.90681,0.56356 -4.16698,-0.0207 -0.7656,-0.35494 -0.12895,-2.13124 -0.94426,-2.34895 -0.91021,-0.24305 -10.24,1.69455 -10.84625,1.75869 -1.72303,0.18228 -6.60717,-0.13354 -8.34443,-0.22222 -4.05305,-1.0108 -8.20745,-0.89136 -12.34118,-0.69648 -1.6121,0.076 -3.22623,0.45148 -4.83261,0.29594 -1.02587,-0.0993 -1.8868,-1.17076 -2.90985,-1.04561 -2.62592,0.32123 -5.05792,1.55311 -7.58688,2.32967 -3.35954,-2.98978 -7.44995,-0.4199 -11.29701,-1.13072 -0.88151,-0.16288 -1.33953,-1.57231 -2.23294,-1.49876 -10.79679,0.88882 -4.29939,4.19229 -9.50304,0.93972 -8.91287,-0.15903 3.50623,-0.28335 -8.32772,1.43506 -0.64702,0.094 -1.24604,-0.57275 -1.89603,-0.50224 -2.66693,0.28933 -5.72753,1.79266 -8.00168,3.09223 -30.0018395,20.11065 -52.94417,31.69086 88.35167,-50.196163 0.27744,-0.160789 -0.63561,-0.264159 -0.94502,-0.17994 -4.14232,1.127501 -4.37542,0.970631 -3.00835,1.446751 -1.40671,0.781434 -3.09526,1.193604 -4.22015,2.344302 -0.72651,0.743177 3.14847,-1.049689 2.54843,0.748988 -0.23612,0.70779 -0.99719,1.118265 -1.40149,1.745368 -0.6953,1.078457 -1.42841,3.058371 -1.89344,4.204374 0.0481,0.695504 0.0962,1.391007 0.14424,2.08651 0.31734,0.586771 0.87988,1.097136 0.95203,1.760311 0.58069,5.33781 -1.56133,0.190464 -0.37841,5.214245 0.37561,1.59517 1.66889,3.162428 2.5666,4.44523 -0.35248,1.171541 -1.00961,2.292142 -1.05743,3.514622 -0.0788,2.013829 2.38936,5.822736 3.14757,7.681492 1.2947,3.86646 0.58524,1.9834 2.11816,5.653 -0.37339,7.1028 -0.78415,0.38874 1.69961,6.04191 0.41073,0.93482 0.43529,1.99992 0.53513,3.0161 0.11072,1.12681 -0.45386,2.40499 0.0948,3.39539 3.63604,6.56303 2.92285,-3.64068 2.68742,5.24246 6.53506,4.57454 -0.25937,-1.24194 2.86014,5.14298 0.46314,0.94796 2.17689,1.00926 2.42434,2.03488 0.31707,1.31426 -1.50268,2.68613 -0.98412,3.93469 0.44639,1.07483 2.29009,0.6719 3.19915,1.39863 0.74144,0.59272 1.02918,1.59531 1.54377,2.39297 0.0414,0.90379 0.1686,5.50785 0.53535,6.43439 0.37042,0.93583 1.29647,1.55052 1.81419,2.41362 1.03375,1.723362 1.19832,3.914312 2.38197,5.538372 0.63978,0.87782 1.65122,1.41176 2.47683,2.11765 1.1747,0.60084 2.93278,0.62301 3.52412,1.80253 0.62801,1.25267 -0.58506,2.77015 -0.52972,4.17033 0.0443,1.12189 0.56793,2.17278 0.82363,3.26605 0.26245,1.12213 0.32956,2.29878 0.73057,3.37918 0.38559,1.03881 1.29795,1.84655 1.60435,2.91141 0.34304,1.19219 0.20049,2.47301 0.30074,3.70952 6.99052,7.483 -1.82291,-2.40563 4.05328,5.67375 0.71494,0.983 1.88463,1.5979 2.52436,2.63142 2.90877,4.69929 -0.31463,2.14022 1.63115,7.35225 0.41975,1.12437 1.42293,1.93309 2.13439,2.89963 0.32571,0.67756 2.7719,5.81008 3.19149,6.5131 0.63335,1.0612 1.77127,1.85482 2.1228,3.0396 0.4158,1.40142 -0.54808,3.06469 0.08,4.38469 3.92339,8.24557 4.56875,-4.03709 2.35557,8.09506 0.12033,1.51671 -0.23087,3.1485 0.36099,4.55014 0.58098,1.37587 2.25159,2.04365 2.97506,3.35024 0.73912,1.33487 0.84084,2.93411 1.30878,4.38642 1.47908,4.59056 3.11953,9.01515 4.347,13.68686 2.43612,6.00546 4.22729,12.0866 5.39802,18.4641 0.29655,1.61542 0.0269,3.38004 0.70303,4.87685 0.64406,1.42592 2.06274,2.35316 3.09411,3.52974 0.1055,3.87232 0.0128,6.03721 0.70671,9.84569 0.28618,1.57075 1.0432,3.05586 1.15466,4.64858 0.12795,1.8283 -0.47229,3.64763 -0.44584,5.48021 0.0517,3.58037 0.72988,7.12542 0.9814,10.69732 -0.18086,5.33037 -0.37286,6.11355 0.0909,11.37843 0.15923,1.80771 0.72828,3.58758 0.67896,5.40162 -0.0773,2.84379 -1.98642,8.97251 -1.37744,11.98462 0.33512,1.65759 1.63414,2.96127 2.45122,4.44191 -2.85819,3.80954 1.52959,7.21061 1.02865,10.78803 -0.34557,2.46781 -2.24446,4.48078 -2.93748,6.87436 -0.53491,1.84747 -0.37174,3.83288 -0.71081,5.7261 -0.35729,1.99499 -1.80195,3.94124 -1.37543,5.92258 0.34374,1.59684 2.27217,2.3472 3.40826,3.5208 -5.08254,12.38055 -1.23515,1.09482 -3.16739,12.20311 -0.61225,3.51976 -2.76013,7.50957 -1.55352,11.29615 2.97778,9.3449 4.91733,-3.00052 0.96117,9.96885 -0.41442,1.92115 -0.82883,3.8423 -1.24324,5.76345 0.43864,1.46301 1.63022,2.89436 1.31591,4.38902 -0.53794,2.55801 -2.93049,4.41746 -3.69361,6.91755 -1.92556,6.3085 1.06294,3.71048 2.08075,9.00654 0.3228,1.67963 -0.18693,3.41562 -0.2804,5.12343 -0.45074,1.88786 -0.73265,3.8242 -1.35221,5.66359 -0.71942,2.13585 -2.21868,4.00807 -2.65058,6.22006 -0.31083,1.59188 0.34631,3.22553 0.49083,4.84102 0.14892,1.66471 0.11534,3.3502 0.38944,4.99893 0.26351,1.58501 1.69207,3.12919 1.21705,4.66413 -0.91978,2.97207 -3.38868,5.21859 -5.08301,7.82788 1.12528,8.803 0.78139,1.30392 -0.8639,11.15883 -0.30106,1.80324 -0.41488,3.63976 -0.4274,5.46791 -0.012,1.74656 0.60937,3.49996 0.35417,5.22782 -2.05124,13.88775 -2.82328,0.10057 -1.5294,12.00368 -2.88378,6.45351 -4.04945,7.02317 -4.02139,13.75923 0.008,1.87966 1.05153,3.73582 0.74251,5.58993 -0.43905,2.63432 -2.21903,4.88415 -2.91778,7.46178 -0.57783,2.13158 -0.53729,4.38519 -0.88495,6.56617 -0.35884,2.25115 -0.82263,4.4843 -1.23395,6.72645 0.69717,7.52106 -4.27554,13.93821 -5.20601,21.11543 -0.25321,1.95313 0.70279,3.93205 0.48008,5.88889 -0.0825,0.72466 -3.92407,14.00032 -4.08573,14.56366 -1.40058,4.42291 -0.67603,9.17958 -1.6906,13.65103 -0.58343,2.57133 -1.9657,4.9189 -2.53047,7.49439 -0.46449,2.11819 -0.48772,4.31555 -0.5347,6.48356 -0.0435,2.00676 0.8816,4.10611 0.26383,6.01591 -1.01193,3.12828 -3.311,5.68136 -4.9665,8.52204 3.33518,9.91488 -3.91499,17.20997 -5.24318,26.42889 -0.27009,1.87465 0.14775,3.78514 0.22163,5.67771 -0.38512,2.06156 -0.77024,4.12313 -1.15536,6.1847 -0.36707,6.61148 -2.09729,12.90638 -4.2907,19.11384 -0.82885,2.34567 -2.02111,4.57183 -2.63567,6.98254 -0.88123,3.45682 -0.671,8.06691 -0.66992,11.59891 0.50924,4.97732 -3.53663,8.54253 -4.44058,13.04657 -0.34707,1.72936 0.78631,3.50484 0.59365,5.25813 -0.24322,2.21356 -1.73358,4.18953 -1.87594,6.41187 -0.10562,1.64871 0.79563,3.20727 1.15646,4.81948 0.356,1.59062 0.66251,3.19191 0.99377,4.78786 -1.29013,2.36128 -3.16263,4.48785 -3.87037,7.08383 -0.42053,1.54252 0.69457,3.15511 0.6433,4.7531 -0.0585,1.82239 -0.87134,3.56283 -0.96853,5.38357 -0.0803,1.50463 0.5499,2.99591 0.44103,4.49874 -0.13421,1.8525 -1.18662,3.59243 -1.16175,5.44962 0.02,1.49415 0.8615,2.86171 1.29225,4.29256 1.67216,3.73625 -1.72745,6.99636 -1.48352,10.53392 0.0992,1.43895 2.3286,2.39663 2.04843,3.81153 -0.52069,2.6296 -3.36422,4.32103 -4.16532,6.87918 -0.42978,1.37239 0.5048,2.83314 0.67671,4.26094 0.1735,1.44112 0.2392,2.89318 0.3588,4.33977 0.28556,1.32039 0.28331,2.73797 0.8567,3.96116 2.19689,4.68656 3.33081,1.17923 2.84187,6.90986 -0.10196,1.19503 -2.21908,6.77063 -1.02204,8.43219 0.84942,1.17904 2.63876,1.21802 3.95814,1.82704 -0.75887,1.88876 -3.0302,6.30959 -2.36687,8.78397 0.59242,2.20987 4.036,3.28981 4.16095,5.83638 0.55684,11.34837 -3.8152,-0.32096 -0.0932,8.02911 0.49486,1.0756 1.28076,2.06048 1.48457,3.22678 0.24168,1.38308 -0.62699,2.87524 -0.18539,4.20803 1.18152,3.56595 4.22607,1.78026 3.83818,6.30557 -0.75225,8.77618 -4.56048,2.68708 0.38254,8.37987 0.70713,1.04776 1.83109,1.91301 2.12139,3.14327 0.34006,1.44109 -0.53382,2.96222 -0.33445,4.42941 0.16906,1.24414 1.10259,2.27536 1.41091,3.49249 0.33829,1.33539 -0.13787,2.88648 0.51263,4.10078 6.91889,12.91565 -0.0623,-7.69583 4.14809,6.15197 0.3965,1.11357 0.79299,2.22715 1.18948,3.34072 -0.26058,1.45775 -1.15374,2.93987 -0.78175,4.37323 0.30397,1.17129 2.00069,1.49167 2.5796,2.55429 0.56962,1.04556 0.37825,2.35792 0.71821,3.49901 0.31773,1.06645 1.0355,2.00422 1.24687,3.09674 0.23728,1.22646 0.0514,2.49788 0.0771,3.74682 0.22535,1.11666 0.4507,2.23332 0.67605,3.34999 0.7805,0.69954 1.9541,1.12475 2.34152,2.09864 0.42342,1.0644 -0.26657,2.29511 -0.14073,3.43371 0.31808,2.87781 2.37081,3.66843 3.99344,5.73064 2.08369,0.89733 -0.46304,2.5602 0.18355,3.55522 0.36083,0.55527 1.3471,0.0183 1.9726,0.23573 0.24654,0.0857 0.23207,0.54089 0.48161,0.61737 0.48319,0.14809 0.97754,-0.25715 1.46838,-0.37747 -1.55688,1.09414 -0.76743,0.50798 1.51845,-0.79809 0.34815,-0.19892 -1.37204,0.83061 -1.03158,0.61878 0.7549,-0.46969 1.55014,-0.87753 2.27498,-1.39241 0.4905,-0.3484 1.00688,-1.67674 1.35841,-1.18847 0.35315,0.49052 -0.87718,0.83179 -1.31577,1.24769 1.27369,-0.67403 2.14041,-1.90737 3.35416,-2.65626 0.15597,-0.0962 0.36589,0.30299 0.51405,0.1951 0.37884,-0.27586 0.69484,-0.62904 1.04226,-0.94356 0.77169,-0.51617 1.54339,-1.03235 2.31508,-1.54852 2.88762,-1.89993 6.06973,-2.97317 8.9014,-4.86777 0.69717,-0.4 1.29051,-1.13325 2.0915,-1.20001 0.35493,-0.0296 -0.57374,1.11827 -0.2253,1.04447 1.20845,-0.25595 2.18859,-1.14659 3.29556,-1.69476 0.39846,-0.19731 0.78953,-0.42692 1.2193,-0.54098 0.25983,-0.069 0.57005,0.13129 0.80647,0.003 1.72034,-0.93113 3.31045,-2.085 4.96568,-3.1275 -0.0177,0.31163 -0.24482,0.68857 -0.0531,0.93488 0.71377,0.91706 7.33364,-1.56376 7.77652,-1.60238 0.38593,-0.0337 0.50559,0.58708 0.75839,0.88062 1.42785,-0.0516 2.72208,-0.81081 4.12656,-0.9554 0.44499,-0.0458 0.88835,0.30687 1.32532,0.21111 1.13977,-0.24979 2.15212,-0.92454 3.28076,-1.22057 0.61435,-0.16114 1.26691,-0.0923 1.90037,-0.13838 1.28557,-0.49249 2.57113,-0.98498 3.8567,-1.47747 0.16882,0.35429 0.12015,0.99377 0.50647,1.06285 0.99518,0.17796 5.76137,-1.70049 6.07443,-1.76543 1.51224,-0.31367 5.24877,-0.15482 6.82256,0.18166 1.30609,-0.41847 2.56296,-1.04538 3.91828,-1.2554 0.6218,-0.0964 1.22378,0.3766 1.85282,0.3611 2.27116,-0.056 4.40907,-1.46291 6.67857,-1.35958 0.49987,0.0228 0.68648,0.72823 1.02972,1.09235 1.20099,-0.25113 2.40198,-0.50225 3.60297,-0.75337 3.1584,-0.61392 6.36648,-0.72024 9.54398,-1.20155 1.18752,-0.17988 2.35146,-0.59704 3.55252,-0.60223 0.70679,-0.003 1.36006,0.38537 2.04009,0.57806 1.01492,-0.11711 2.02984,-0.23422 3.04477,-0.35133 4.90775,1.67226 9.23694,-2.74641 14.13376,-2.51582 0.6051,0.0285 1.09713,0.51395 1.6457,0.77093 1.11719,-0.17369 2.23438,-0.34738 3.35157,-0.52106 0.38401,0.38057 0.61195,1.11718 1.15204,1.14173 1.33952,0.0609 2.6106,-0.614 3.91813,-0.91127 1.30924,-0.29766 2.60654,-0.65996 3.9321,-0.87352 1.01714,-0.16387 2.05358,-0.34344 3.08015,-0.25623 0.63296,0.0538 1.15892,0.7812 1.78424,0.66946 1.8472,-0.33009 3.52472,-1.28871 5.28708,-1.93307 -0.25286,0.82171 -1.57057,2.1826 -0.75858,2.46513 1.39698,0.4861 2.78939,-1.07541 4.25851,-1.2473 0.79168,-0.0926 1.55185,0.38309 2.34364,0.47483 0.90559,0.10493 1.82456,0.19432 2.7326,0.11333 6.76877,-0.6037 1.1026,-0.97235 6.14635,-0.44183 2.60161,1.64605 5.20669,-0.18657 7.68533,0.0935 0.48846,0.0552 0.51778,0.99943 1.00243,1.08163 1.04217,0.17676 5.84487,-1.06127 6.5685,-1.22971 0.7709,3.87363 4.00811,-0.1107 6.54078,0.3572 0.50742,0.0937 -0.34528,1.43836 0.16068,1.53967 1.14451,0.22916 2.25762,-0.60048 3.40283,-0.82614 1.12954,-0.22257 2.27655,-0.34483 3.41482,-0.51724 1.41877,3.60137 -0.84584,-0.75799 4.76695,0.17215 0.63309,0.10492 -0.70626,1.42842 -0.27672,1.90518 0.97013,1.07676 4.18377,-0.77208 6.00708,-0.98151 0.5435,-0.0624 1.04073,0.33769 1.56109,0.50654 2.68944,-0.40678 5.01213,0.0672 7.50398,0.96468 0,0 -84.76911,61.02644 -84.76911,61.02644 l 0,0 c -0.85156,0.0713 -1.70641,0.31734 -2.55468,0.214 -0.49372,-0.0601 -0.84294,-0.5632 -1.32477,-0.68659 -1.52008,-0.38926 -3.22879,-0.0693 -4.72976,0.0705 -1.12027,0.24081 -2.21501,0.73453 -3.36081,0.72245 -0.50292,-0.005 -0.79836,-0.70342 -1.29668,-0.77155 -0.89514,-0.12239 -1.80419,0.33407 -2.70104,0.22494 -0.51376,-0.0625 -0.88112,-0.56665 -1.37514,-0.72092 -1.94928,-0.60872 -2.67636,-0.18687 -4.80244,0.15029 0.0212,-0.5061 0.54428,-1.35831 0.0637,-1.51831 -0.97026,-0.323 -2.00179,0.45102 -3.02104,0.53377 -0.71651,0.0582 -1.44611,-0.24108 -2.15359,-0.11365 -6.46256,1.164 -1.8923,1.57089 -7.41169,0.21423 -1.11869,0.22111 -4.41145,1.10403 -5.82536,0.65072 -0.47257,-0.15152 -0.51184,-1.04229 -1.00491,-1.09848 -1.1414,-0.13007 -2.24545,0.59162 -3.39423,0.59718 -7.49415,0.0362 7.97605,-2.79773 -5.67617,0.30488 -3.61031,-1.91449 -4.70746,0.39484 -8.39576,0.36797 -0.54344,-0.004 -0.96068,-0.61504 -1.50395,-0.6295 -11.31615,-0.30113 2.90259,1.26199 -5.36994,0.23388 -3.2888,-1.13682 -0.35726,-0.44375 -5.22873,0.0101 -10.57278,0.98491 4.86349,-0.93875 -4.90285,-0.27803 -2.67963,0.18129 -5.35876,1.21317 -7.87157,1.99249 -2.40217,-0.0927 -4.96513,-0.0388 -7.34708,-0.33427 -0.68031,-0.0844 -1.31712,-0.55025 -1.99925,-0.48214 -2.80501,0.28004 -5.36461,1.90665 -8.2038,2.05332 -0.45132,-0.38255 -0.76451,-1.09661 -1.35394,-1.14766 -2.16014,-0.18707 -5.9983,1.79007 -7.9331,1.96477 -0.56909,0.0514 -0.98271,-0.73331 -1.55403,-0.72352 -0.62669,0.0107 -6.81525,1.6386 -7.32531,1.76957 -0.37482,-0.31741 -0.63409,-0.9243 -1.12446,-0.95223 -1.12144,-0.0639 -2.18918,0.51005 -3.29619,0.70043 -0.92786,0.15956 -1.88801,0.12611 -2.80286,0.34844 -1.40163,0.34063 -2.67941,1.21259 -4.11679,1.33322 -0.49978,0.0419 -0.71774,-0.83118 -1.2163,-0.88568 -1.02572,-0.11213 -2.04483,0.27827 -3.06724,0.4174 -1.1047,0.2666 -2.20941,0.5332 -3.31411,0.7998 -0.66607,-0.0351 -1.34981,-0.26162 -1.99823,-0.10528 -3.73457,0.90048 -6.85813,3.43492 -10.8622,2.43813 -3.03901,-0.49572 0.84609,-0.0861 -4.43164,1.0566 -0.34474,0.0746 -0.65706,-0.46963 -0.99359,-0.36401 -1.43114,0.44917 -2.5792,1.68627 -4.05601,1.94884 -0.40874,0.0727 0.0559,-0.82841 0.0839,-1.24262 -1.34914,0.5864 -2.69828,1.17279 -4.04742,1.75919 -3.02312,-1.47528 -4.42581,2.23673 -7.23241,2.55615 -0.6585,0.0749 1.86535,-1.26295 1.26174,-1.53661 -0.73068,-0.33128 -1.40948,0.76674 -2.11422,1.15012 -1.88586,1.05154 -3.55095,2.52034 -5.54503,3.3485 -0.23408,0.0972 0.28039,-0.83584 0.0387,-0.75942 -1.49856,0.47388 -3.06862,2.19176 -4.59272,2.72295 -1.4346,-1.26826 0.0664,-0.14485 -3.75058,2.17191 -0.2509,0.15229 -0.60362,-0.004 -0.87345,0.11139 -0.9032,0.38668 -2.71698,2.60418 -3.49901,1.76098 -1.10521,0.62787 -3.71815,2.16375 -4.72713,2.4576 -0.19502,0.0568 -0.22654,-0.49702 -0.42151,-0.44006 -0.87565,0.25584 -1.51542,1.35768 -2.42358,1.27129 -0.51043,-0.0485 1.00715,-1.36871 0.50158,-1.45413 -1.00116,-0.16914 -1.90472,0.70411 -2.85708,1.05616 1.96169,-4.88002 -2.7708,1.25947 -3.75021,-0.91307 -0.25583,-0.56748 0.80047,-1.6275 0.22079,-1.85434 -5.25401,-2.05607 -2.20535,3.05341 -4.10258,-0.92675 -0.41903,-0.45964 -1.01909,-0.80429 -1.2571,-1.37893 -0.29276,-0.70685 0.37495,-1.85173 -0.25861,-2.28062 -0.99514,-0.67364 -2.7115,0.49453 -3.59044,-0.32496 -0.64892,-0.60503 0.55645,-1.75055 0.4235,-2.62776 -0.24735,-1.63199 -2.14079,-2.50556 -3.24395,-3.26485 -1.34076,-3.16064 -0.94416,-1.44859 -1.00341,-5.29385 -0.016,-1.04154 0.51402,-2.24363 -0.0417,-3.1247 -0.61797,-0.97988 -2.57891,-0.65272 -3.01698,-1.72516 -3.45852,-8.46678 5.44911,-0.35945 -2.09338,-6.13052 1.63919,-11.37955 0.851,2.14152 -2.11895,-6.62641 -0.44814,-1.323 0.74349,-2.79822 0.45749,-4.16546 -0.22869,-1.09329 -1.41293,-1.75386 -1.90537,-2.7564 -1.05784,-2.1536 -1.0644,-4.74044 -2.55925,-6.72781 1.19037,-11.77491 0.5012,2.18846 -1.0703,-7.96879 -0.22785,-1.4727 0.82427,-3.0747 0.27983,-4.46191 -0.50149,-1.27778 -2.21669,-1.66108 -3.09646,-2.71475 -3.51932,-4.21497 -1.61965,-3.84557 1.11939,-9.15391 -1.35807,-0.70999 -3.00114,-1.03594 -4.07423,-2.12999 -2.34967,-2.39558 -1.79699,-8.29166 -2.8158,-11.22095 -0.41621,-1.19672 -1.375,-2.13824 -1.90646,-3.28842 -0.52488,-1.13595 -0.83254,-2.36018 -1.24882,-3.54027 0.46551,-1.6263 1.34038,-3.18823 1.39651,-4.87891 0.0821,-2.47125 -2.16983,-4.59198 -2.26783,-7.06265 -0.06,-1.51192 1.10422,-2.97466 0.83026,-4.46277 -0.43698,-2.37361 -3.91507,-3.41004 -4.32639,-5.80578 -0.20386,-2.27815 -0.53865,-5.56705 -0.57373,-7.83996 -0.0217,-1.40312 0.265,-2.81439 0.10529,-4.20857 -0.15018,-1.31091 -0.98462,-2.50448 -1.02541,-3.82333 -0.0507,-1.63807 1.01658,-3.2398 0.75689,-4.85795 -0.21912,-1.3654 -1.40651,-2.3814 -2.10977,-3.5721 0.15046,-1.62447 0.52534,-3.24367 0.45138,-4.87342 -0.34351,-7.56902 -1.89345,-1.18598 -0.60574,-9.34856 0.27163,-1.72181 2.61217,-9.64935 2.63785,-11.44212 0.0221,-1.54572 -0.71604,-3.0077 -1.07406,-4.51156 -0.66646,-6.19434 -1.08234,-14.13715 -0.15245,-20.29461 0.29179,-1.9322 0.89335,-3.80994 1.1704,-5.7443 0.26012,-1.81611 0.2921,-3.65763 0.43815,-5.48644 0.22954,-1.9767 1.08237,-9.73131 1.49679,-11.61153 0.48863,-2.21685 1.42539,-4.31926 1.90824,-6.53737 0.43889,-2.0162 0.46917,-4.10362 0.84961,-6.13166 1.85913,-9.91077 1.55408,-2.57868 1.37416,-11.72138 1.82872,-8.60689 0.62852,-4.21217 3.71807,-13.15152 0.42661,-1.96222 0.0974,-4.02727 0.41711,-6.00973 0.98962,-6.137 4.12501,-11.84776 2.17492,-18.18873 1.35494,-2.54486 3.09661,-4.91893 4.06481,-7.63458 1.73017,-4.85286 0.31754,-7.11904 0.75711,-11.9906 0.19927,-2.20837 0.55323,-4.42359 1.21303,-6.54049 0.82201,-2.63734 2.64233,-4.93755 3.20729,-7.64164 0.39899,-1.90968 -0.26043,-3.89313 -0.39065,-5.83969 2.78422,-6.19654 4.2718,-8.29205 5.28511,-14.86727 0.32086,-2.08199 0.0217,-4.22303 0.2825,-6.31339 0.90319,-7.2397 3.16011,-14.34538 4.94757,-21.38637 0.43056,-2.27577 0.66995,-4.59616 1.29168,-6.82729 0.71854,-2.57854 2.24305,-4.92233 2.71664,-7.55688 0.35508,-1.97528 -0.48611,-4.01843 -0.27704,-6.01445 0.24807,-2.36837 1.26688,-4.60162 1.63542,-6.95425 3.72426,-23.7748 -3.48052,12.73322 1.85684,-13.16476 0.35942,-2.22934 0.76233,-4.45209 1.07827,-6.688 0.3022,-2.13867 0.0591,-4.3956 0.77578,-6.43315 1.01187,-2.87677 3.39573,-5.15768 4.32299,-8.06284 1.67869,-5.25939 -2.19757,-12.90215 1.01217,-18.00727 -2.02682,-9.4121 -1.27881,-0.92095 2.30605,-12.33425 0.56991,-1.81444 0.37683,-3.78614 0.64646,-5.66876 0.82311,-5.74708 2.98325,-11.24312 2.4663,-17.12113 0.16926,-1.81639 0.21318,-3.64885 0.5078,-5.44916 1.58094,-9.66039 1.24392,-2.20005 2.09799,-11.3578 0.15909,-1.70584 0.24568,-3.42076 0.24275,-5.13401 -0.003,-1.60267 -0.5162,-3.21898 -0.25975,-4.801 0.33765,-2.08296 1.34069,-4.00168 2.01104,-6.00251 -0.63189,-2.33775 -2.02486,-6.58876 -1.65413,-9.05651 0.31983,-2.12896 1.8654,-3.96019 2.13213,-6.09645 0.19097,-1.52951 -0.87277,-3.01424 -0.80236,-4.55401 0.17083,-3.7358 2.46307,-7.20278 1.79843,-11.07403 0.13381,-2.3779 0.52944,-8.16976 0.38526,-10.55925 -0.0997,-1.65254 -0.85107,-3.26761 -0.70344,-4.91656 0.4572,-5.10646 4.40648,-11.89185 3.6897,-17.48155 0.076,-1.73085 0.31414,-3.46218 0.22802,-5.19256 -0.44513,-8.94374 -1.35024,-0.69043 -0.65954,-10.238 0.42198,-5.83307 0.88237,-6.17547 2.59612,-12.02213 0.20867,-1.77049 -0.32563,-3.55059 -0.48844,-5.32589 -0.006,-22.33949 0.27079,10.66568 -0.76566,-10.64405 -0.0928,-1.90794 0.30397,-3.81682 0.23497,-5.72576 -0.0639,-1.76815 -0.6061,-3.501 -0.6324,-5.27011 -0.0343,-2.30922 0.93276,-9.42482 1.20647,-11.62788 -2.18301,-6.34266 -1.77834,-2.96738 -0.83902,-10.16375 -0.38635,-1.49533 -2.53315,-2.02002 -3.07408,-3.46662 -0.58229,-1.55721 0.1517,-3.34148 -0.0869,-4.98678 -1.30867,-9.02379 -2.02116,0.92373 -0.45961,-9.58947 -1.02041,-1.11319 -2.75628,-1.86058 -3.06124,-3.33959 -0.38969,-1.88998 0.80343,-3.77492 1.20514,-5.66238 -0.32953,-1.5087 -0.64116,-3.02143 -0.98859,-4.52612 -0.34945,-1.51348 -0.47315,-3.10739 -1.10191,-4.52774 -0.61355,-1.38596 -2.28677,-2.26481 -2.56463,-3.75481 -0.35275,-1.89159 0.53218,-3.81142 0.79828,-5.71713 -8.98844,-13.67757 3.42438,6.70473 -2.71238,-8.98832 -0.56135,-1.43552 -2.34698,-2.06553 -3.16279,-3.3733 -2.53055,-4.05652 -0.67068,-8.64131 -3.20783,-12.66462 -6.47768,-4.8059 -1.64263,0.22007 -3.54797,-7.09899 -1.98221,-7.61438 -1.774,0.99543 -4.29535,-6.10349 -0.45226,-1.27333 0.19017,-2.73806 -0.12595,-4.05182 -0.27489,-1.14241 -1.06953,-2.09255 -1.6043,-3.13883 -0.59549,-1.18811 -4.93395,-8.60756 -5.06972,-9.30784 -0.27035,-1.39442 0.64985,-2.86599 0.32509,-4.24875 -0.41079,-1.74909 -3.45624,-4.18866 -4.61888,-5.25349 -0.53996,-3.20565 -0.96502,-7.10909 -3.31748,-9.64327 -0.82288,-0.88644 -2.54773,-0.97789 -2.94441,-2.12049 -2.67218,-7.69691 5.12122,-1.30363 -2.26474,-6.09953 -0.28476,-1.03963 -0.56953,-2.07926 -0.85429,-3.11889 -0.63325,-0.8279 -1.60712,-1.48331 -1.89974,-2.48371 -0.33182,-1.13441 0.58647,-2.4501 0.13687,-3.54319 -0.39992,-0.97232 -2.05239,-1.03439 -2.42416,-2.01783 -0.43707,-1.15618 1.00346,-2.709 0.2631,-3.69878 -0.82316,-1.10047 -2.62628,-0.81067 -3.93942,-1.21601 0.30466,-9.27741 0.94666,1.82487 -2.80049,-5.06084 -0.53061,-0.97505 0.42562,-2.23635 0.20358,-3.32399 -0.19489,-0.95462 -1.08467,-1.64289 -1.40536,-2.56291 -1.66825,-4.78595 1.41163,-2.43582 -4.27348,-4.56891 -1.32655,-11.1395 0.70178,4.88284 -1.1267,-6.36549 -0.1831,-1.12639 -10e-4,-2.3136 -0.32381,-3.40818 -0.31555,-1.07011 -1.29102,-1.87981 -1.55515,-2.96376 -0.28064,-1.15167 0.61559,-2.56412 -0.0335,-3.55594 -0.71628,-1.09439 -2.32009,-1.20838 -3.48014,-1.81258 0.81959,-4.765 1.20965,-3.0684 -0.35179,-7.09765 -0.36294,-0.93656 -0.97529,-1.78822 -1.18491,-2.77052 -0.24052,-1.127152 0.12136,-2.332922 -0.14348,-3.454602 -0.46219,-1.95758 -1.97813,-3.27623 -3.23708,-4.68714 1.61357,-7.7887 0.46908,0.32442 0.0135,-6.31241 -0.0884,-1.28847 0.8223,-4.28633 0.033,-5.67462 -0.45384,-0.79828 -1.8922295,-0.83258 -2.1587995,-1.71131 -0.29676,-0.97824 0.49103,-1.98469 0.73655,-2.97703 -1.98795,-4.90721 -0.38037,0.67122 0.68811,-5.73662 0.11436,-0.6858 -0.59273,-1.27494 -0.71521,-1.95933 -0.40677,-2.27292 0.51774,-4.48072 1.7268895,-6.31506 -0.10931,-0.54488 -0.15893,-1.10522 -0.32793,-1.63464 -0.15145,-0.47444 -0.7286795,-0.86874 -0.6268195,-1.35624 0.1826695,-0.8743 0.6195195,-1.83786 1.3889495,-2.29144 31.51864,-18.580391 63.46255,-36.429726 95.19383,-54.6445882 -0.7773,1.98438 -0.55968,0.984192 -0.70608,2.988489 1.5793,-0.654496 5.10328,-2.653407 7.36237,-2.154973 0.53986,0.119113 0.67635,1.220539 1.22052,1.122973 2.25369,-0.404072 4.12067,-2.29282 6.40182,-2.489609 0.70232,-0.06059 0.68458,1.232502 1.02687,1.848753 1.82568,-0.388304 3.65136,-0.776607 5.47704,-1.164911 3.21266,2.800801 0.58563,1.278818 6.51255,1.141057 1.27071,-0.02954 2.53501,0.208704 3.80572,0.238212 1.36656,0.03173 2.74667,-0.243879 4.10043,-0.05462 7.74049,1.082124 -4.79765,3.040807 9.57404,-0.808078 3.83972,2.661672 0.96898,1.394275 7.33169,1.01289 14.70009,-0.881133 -4.80251,0.559913 8.34221,0.332462 1.72227,-0.0298 3.42752,-0.347129 5.14127,-0.520694 1.47507,0.01519 2.95014,0.03037 4.42521,0.04556 1.46984,3.44e-4 2.94702,-0.145623 4.40953,0.001 1.08523,0.108825 2.09209,0.786021 3.18246,0.760275 1.86351,-0.044 3.64455,-0.923443 5.5081,-0.965478 1.08971,-0.02458 2.08947,0.823496 3.17813,0.769549 12.46145,-0.617511 0.66243,-2.008205 9.30383,-0.687505 1.94036,-0.38928 3.84232,-1.135121 5.82107,-1.167841 2.11538,-0.03498 3.78997,2.818864 6.22606,1.233132 1.77753,-0.166842 3.47066,-1.071235 5.25558,-1.032405 0.79182,0.01723 1.37046,0.794306 2.05569,1.19146 1.19403,-0.03407 2.38806,-0.06814 3.58209,-0.102211 3.77967,0.06963 3.21788,0.227326 7.30668,-0.504874 1.50053,-0.268708 2.94596,-0.951761 4.47031,-0.964628 0.6835,-0.0058 1.16052,0.81287 1.8369,0.911388 8.45736,1.231845 -0.64842,-1.421529 5.27582,0.473847 1.15394,-0.274073 9.7695,-2.139612 10.88742,-1.775778 0.57207,0.186183 -0.0809,1.510739 0.47483,1.741225 1.88327,0.781122 7.99748,-2.005083 8.58275,-2.218548 2.87435,1.935821 -0.0711,0.420929 4.91477,0.464643 0.70041,0.0061 1.32783,0.592368 2.02717,0.553214 1.39047,-0.07785 2.69012,-0.823474 4.08092,-0.895189 0.14306,-0.0074 4.2449,1.160409 4.35215,1.190625 1.30271,-0.335862 7.15591,-2.02751295 8.87235,-1.83822195 0.68842,0.07592 0.98597,1.20993495 1.6784,1.22479295 3.82473,0.08207 5.96538,-2.55435695 9.71898,-0.085 3.45853,0.117923 6.79634,-0.165884 10.23942,-0.515196 1.14221,-0.11587995 2.28285,-0.24679895 3.42352,-0.37687095 1.077,-0.122811 2.15672,-0.53752 3.22945,-0.381772 0.51318,0.07451 0.78248,0.68070895 1.17372,1.02106395 0.27437,-0.05588 4.90016,-1.12908795 5.61777,-0.84637895 0.39245,0.154611 -0.20695,1.20810695 0.21303,1.24736495 2.00701,0.187607 4.29761,-2.06426595 6.46439,-1.39442595 0,0 -86.89861,63.13553115 -86.89861,63.13553115 z"
       inkscape:connector-curvature="0" />
  </g>
</svg>
